<svg xmlns="http://www.w3.org/2000/svg" width="18.001" height="20" viewBox="0 0 18.001 20">
  <path id="CollectionsMajor" d="M6.948,0A1.489,1.489,0,0,1,8,.44L9.477,2.12,5.839,6.24a3.568,3.568,0,0,0-.872,2.33V18H2.487a1.48,1.48,0,0,1-1.051-.44A1.507,1.507,0,0,1,1,16.5V6.62a1.5,1.5,0,0,1,.377-1l3.48-4L5.9.44A1.48,1.48,0,0,1,6.949,0ZM14.04,2.44l4.58,5.13a1.484,1.484,0,0,1,.381,1V18.5A1.5,1.5,0,0,1,17.495,20H8.456A1.5,1.5,0,0,1,7,18.5V8.62a1.487,1.487,0,0,1,.382-1l3.524-4,1.005-1.18a1.51,1.51,0,0,1,2.128,0Zm-1.9,5.807a1.5,1.5,0,1,0-.662-1.1,1.51,1.51,0,0,0,.662,1.1Z" transform="translate(-1 -0.001)" fill="#5c5f62"/>
</svg>
