<svg xmlns="http://www.w3.org/2000/svg" width="56" height="56" viewBox="0 0 56 56">
  <g id="Group_42" data-name="Group 42" transform="translate(-947 -422)">
    <g id="Rectangle_10" data-name="Rectangle 10" transform="translate(947 422)" fill="#fff" stroke="#9f9f9f" stroke-width="2">
      <rect width="56" height="56" rx="13" stroke="none"/>
      <rect x="1" y="1" width="54" height="54" rx="12" fill="none"/>
    </g>
    <g id="Icon_feather-image" data-name="Icon feather-image" transform="translate(961.492 436.492)">
      <path id="Path_190" data-name="Path 190" d="M7.5,4.5H28.486a3,3,0,0,1,3,3V28.486a3,3,0,0,1-3,3H7.5a3,3,0,0,1-3-3V7.5a3,3,0,0,1,3-3Z" transform="translate(-4.5 -4.5)" fill="none" stroke="#9f9f9f" stroke-linecap="round" stroke-linejoin="round" stroke-width="2"/>
      <path id="Path_191" data-name="Path 191" d="M15,12.749A2.249,2.249,0,1,1,12.749,10.5,2.249,2.249,0,0,1,15,12.749Z" transform="translate(-4.503 -4.503)" fill="none" stroke="#9f9f9f" stroke-linecap="round" stroke-linejoin="round" stroke-width="2"/>
      <path id="Path_192" data-name="Path 192" d="M31.486,22.5l-7.5-7.5L7.5,31.491" transform="translate(-4.502 -4.506)" fill="none" stroke="#9f9f9f" stroke-linecap="round" stroke-linejoin="round" stroke-width="2"/>
    </g>
  </g>
</svg>
