<svg xmlns="http://www.w3.org/2000/svg" xmlns:xlink="http://www.w3.org/1999/xlink" width="31.062" height="46.266" viewBox="0 0 31.062 46.266">
  <defs>
    <clipPath id="clip-path">
      <rect id="Rectangle_621" data-name="Rectangle 621" width="31.062" height="46.266" fill="none"/>
    </clipPath>
  </defs>
  <g id="Group_1247" data-name="Group 1247" transform="translate(0)">
    <g id="Group_1246" data-name="Group 1246" transform="translate(0 0)" clip-path="url(#clip-path)">
      <path id="Path_732" data-name="Path 732" d="M4.66,15.532A10.874,10.874,0,0,1,15.531,4.66V0a15.533,15.533,0,0,0-3.977,30.548l.021.082,3.956,15.636V26.4A10.871,10.871,0,0,1,4.66,15.532" transform="translate(0 0)" fill="#f16a4d"/>
      <path id="Path_733" data-name="Path 733" d="M14.629,0V4.66a10.872,10.872,0,0,1,0,21.745V46.266L18.585,30.63l.022-.083A15.533,15.533,0,0,0,14.629,0" transform="translate(0.902 0)" fill="#e9401b"/>
      <path id="Path_734" data-name="Path 734" d="M9.089,15.267A6.17,6.17,0,0,1,15.26,9.1V4.389a10.872,10.872,0,0,0,0,21.745v-4.7a6.17,6.17,0,0,1-6.171-6.17" transform="translate(0.271 0.271)" fill="#e9401b"/>
      <path id="Path_735" data-name="Path 735" d="M14.629,4.389V9.1a6.169,6.169,0,0,1,0,12.339v4.7a10.872,10.872,0,0,0,0-21.745" transform="translate(0.902 0.271)" fill="#f16a4d"/>
    </g>
  </g>
</svg>
