<svg xmlns="http://www.w3.org/2000/svg" xmlns:xlink="http://www.w3.org/1999/xlink" width="65" height="65" viewBox="0 0 65 65">
  <defs>
    <clipPath id="clip-path">
      <rect id="Rectangle_676" data-name="Rectangle 676" width="25.266" height="38.846" fill="#fff"/>
    </clipPath>
  </defs>
  <g id="Group_1289" data-name="Group 1289" transform="translate(-1223 -422)">
    <circle id="Ellipse_32" data-name="Ellipse 32" cx="32.5" cy="32.5" r="32.5" transform="translate(1223 422)" fill="#0f7457"/>
    <g id="Group_1272" data-name="Group 1272" transform="translate(1243 435)" clip-path="url(#clip-path)">
      <path id="Path_768" data-name="Path 768" d="M12.565,33.356c.6-.927,1.208-2.147,1.978-3.368.757-1.536,1.683-3.049,2.61-4.734a82.693,82.693,0,0,0,3.831-8.1A14.756,14.756,0,0,0,22.2,12.4a7.1,7.1,0,0,0-.16-1.829c-.145-.611-.3-1.221-.45-1.831-.318-.464-.61-1.073-.916-1.537a11.842,11.842,0,0,0-1.231-1.513,5.846,5.846,0,0,0-1.537-1.1,3.707,3.707,0,0,0-1.684-.9,4.8,4.8,0,0,0-1.831-.61c-.621,0-1.231-.147-1.829-.147-.634,0-1.231.147-1.842.147a7.6,7.6,0,0,0-1.842.61,3.873,3.873,0,0,0-1.7.9,10.471,10.471,0,0,0-1.526,1.1c-.3.44-.757.9-1.22,1.513a6.915,6.915,0,0,0-.768,1.537,8.916,8.916,0,0,0-.611,1.831A7.157,7.157,0,0,0,2.9,12.4,17.67,17.67,0,0,0,4.439,17.91c.915,2.292,2.294,4.88,3.513,7.343,1.074,1.978,2.294,3.978,3.221,5.662.463.9,1.073,1.684,1.391,2.441m3.367-23.4a4.294,4.294,0,0,0-3.367-1.391A4.271,4.271,0,0,0,9.185,9.955a4.5,4.5,0,0,0-1.378,3.368,4.545,4.545,0,0,0,1.378,3.368,4.847,4.847,0,0,0,6.746,0,4.732,4.732,0,0,0,1.527-3.368,4.686,4.686,0,0,0-1.527-3.368M12.565,6.588A6.706,6.706,0,0,1,17.3,8.564a6.827,6.827,0,0,1,2,4.759,6.726,6.726,0,0,1-2,4.734,7.263,7.263,0,0,1-4.734,1.829,7.294,7.294,0,0,1-4.757-1.829,6.709,6.709,0,0,1-1.989-4.734A6.809,6.809,0,0,1,7.807,8.564a6.734,6.734,0,0,1,4.757-1.976m12.7,5.807c0,6.417-11.335,24.182-11.493,24.474l-.452.927-.757,1.049-.781-1.22-.45-.757-.16-.147c-.3-.61-3.063-4.9-5.673-9.784C2.755,21.741,0,15.616,0,12.4A13.9,13.9,0,0,1,.144,9.955,14.169,14.169,0,0,1,.913,7.662c.3-.758.769-1.366,1.074-2.148A18.907,18.907,0,0,1,3.672,3.684,17.969,17.969,0,0,1,5.5,2.147,11.073,11.073,0,0,1,7.807.927,13.223,13.223,0,0,1,10.1.316,14.165,14.165,0,0,1,12.565,0a12.4,12.4,0,0,1,2.441.316,11.862,11.862,0,0,1,2.453.611,15.1,15.1,0,0,1,2.134,1.22,6.132,6.132,0,0,1,1.842,1.537,10.214,10.214,0,0,1,2.757,3.978,11.832,11.832,0,0,1,.768,2.147c0,.292.148.757.148,1.22h.158V12.4Z" transform="translate(0 0.001)" fill="#fff"/>
    </g>
  </g>
</svg>
