<svg id="Group_1076" data-name="Group 1076" xmlns="http://www.w3.org/2000/svg" width="25" height="28" viewBox="0 0 25 28">
  <path id="Path_704" data-name="Path 704" d="M21.9,5.392a.273.273,0,0,0-.248-.228c-.1-.009-2.12-.039-2.12-.039s-1.687-1.619-1.853-1.784a.7.7,0,0,0-.618-.078l-.847.259a5.827,5.827,0,0,0-.406-.985A2.857,2.857,0,0,0,13.261.8h0c-.074,0-.147.007-.221.013C13,.78,12.973.744,12.94.708A2.239,2.239,0,0,0,11.173,0C9.8.04,8.434,1.02,7.326,2.76A10.846,10.846,0,0,0,5.784,6.713l-2.7.827c-.8.247-.821.271-.924,1.012C2.081,9.113,0,25.019,0,25.019L17.44,28,25,26.143S21.915,5.533,21.9,5.392Zm-6.56-1.6L13.982,4.2a7.329,7.329,0,0,0-.417-2.468C14.607,1.931,15.12,3.1,15.336,3.79Zm-2.266.694-2.912.891a6.8,6.8,0,0,1,1.47-2.821,2.937,2.937,0,0,1,.989-.712A6.4,6.4,0,0,1,13.07,4.483ZM11.2.9a1.412,1.412,0,0,1,.825.214,3.968,3.968,0,0,0-1.066.82A7.865,7.865,0,0,0,9.154,5.681l-2.392.732C7.234,4.234,9.082.965,11.2.9Z" fill="#95bf47"/>
  <path id="Path_705" data-name="Path 705" d="M21.648,5.164c-.1-.009-2.12-.039-2.12-.039s-1.687-1.619-1.853-1.784a.414.414,0,0,0-.234-.106V28L25,26.143S21.916,5.534,21.9,5.392A.274.274,0,0,0,21.648,5.164Z" fill="#5e8e3e"/>
  <path id="Path_706" data-name="Path 706" d="M13.251,9.005l-.878,3.246a5.036,5.036,0,0,0-2.14-.368c-1.7.106-1.72,1.167-1.7,1.434.093,1.452,3.957,1.769,4.174,5.17.17,2.675-1.436,4.506-3.75,4.65a5.655,5.655,0,0,1-4.308-1.446l.589-2.475a5.361,5.361,0,0,0,2.772,1.071A1.08,1.08,0,0,0,9.07,19.132C8.949,17.238,5.8,17.35,5.6,14.238c-.167-2.619,1.573-5.272,5.412-5.512A4.769,4.769,0,0,1,13.251,9.005Z" fill="#fff"/>
</svg>
