<svg xmlns="http://www.w3.org/2000/svg" width="16.287" height="18" viewBox="0 0 16.287 18">
  <g id="Group_1242" data-name="Group 1242" transform="translate(-2 -1)">
    <path id="Path_718" data-name="Path 718" d="M14.363,5.219A4.219,4.219,0,1,1,10.144,1,4.219,4.219,0,0,1,14.363,5.219Z" fill="#5c5f62"/>
    <path id="Path_719" data-name="Path 719" d="M2.67,14.469a12.568,12.568,0,0,1,7.474-2.853,12.568,12.568,0,0,1,7.474,2.853,1.852,1.852,0,0,1,.567,2.056l-.333,1.02A2.11,2.11,0,0,1,15.846,19H4.441a2.11,2.11,0,0,1-2.005-1.455L2.1,16.525A1.852,1.852,0,0,1,2.67,14.469Z" fill="#5c5f62"/>
  </g>
</svg>
