<svg xmlns="http://www.w3.org/2000/svg" width="20" height="16" viewBox="0 0 20 16">
  <path id="Path_720" data-name="Path 720" d="M12.984,18a1,1,0,0,1-.941-.658L8.968,8.888,6.919,14.353a1,1,0,0,1-1.8.163L2.935,10.871,1.811,12.556a1,1,0,0,1-1.665-1.11l2-3A.967.967,0,0,1,3,8a1,1,0,0,1,.833.485L5.773,11.71,8.044,5.651A1,1,0,0,1,8.982,5h.005a1,1,0,0,1,.936.659l2.948,8.1L16.024,2.726A1,1,0,0,1,16.964,2a.986.986,0,0,1,.97.684l2,6a1,1,0,1,1-1.9.632l-.981-2.933L13.947,17.272a1,1,0,0,1-.927.726h-.035" transform="translate(0 -2)" fill="#108060"/>
</svg>
