<svg xmlns="http://www.w3.org/2000/svg" xmlns:xlink="http://www.w3.org/1999/xlink" width="26.145" height="42.112" viewBox="0 0 26.145 42.112">
  <defs>
    <clipPath id="clip-path">
      <rect id="Rectangle_671" data-name="Rectangle 671" width="26.145" height="42.112" fill="none"/>
    </clipPath>
  </defs>
  <g id="Group_1263" data-name="Group 1263" transform="translate(3 3)">
    <g id="Group_1262" data-name="Group 1262" transform="translate(-3 -3)" clip-path="url(#clip-path)">
      <path id="Path_763" data-name="Path 763" d="M9.208,19.95l.71,9.206.847-9.206c-.146.157-.574.157-.847.157a1.163,1.163,0,0,1-.71-.157M8.779,2.98h0a.718.718,0,0,1,.282.563.3.3,0,0,1-.282.294A5.7,5.7,0,0,0,5.236,5.1,5.327,5.327,0,0,0,3.544,8.779c0,.294-.148.294-.43.294a.3.3,0,0,1-.282-.43A5.823,5.823,0,0,1,4.672,4.672,5.831,5.831,0,0,1,8.779,2.98m3.4,16.833h0L10.619,35.926H9.343L7.933,19.813a11.231,11.231,0,0,1-5.1-2.684,10.249,10.249,0,0,1,0-14.149A10.137,10.137,0,0,1,9.918,0a9.422,9.422,0,0,1,7.076,2.98,9.294,9.294,0,0,1,2.967,7.085,9.286,9.286,0,0,1-2.967,7.064,10.285,10.285,0,0,1-4.819,2.684M16.147,3.837h0a8.663,8.663,0,0,0-6.23-2.551A8.8,8.8,0,0,0,3.825,3.837a9.131,9.131,0,0,0-2.55,6.228,8.314,8.314,0,0,0,2.55,6.07,8.381,8.381,0,0,0,6.093,2.685,8.26,8.26,0,0,0,6.23-2.685,7.931,7.931,0,0,0,2.684-6.07,8.68,8.68,0,0,0-2.684-6.228" transform="translate(3.093 3.094)" fill="#595959" stroke="#595959" stroke-width="0.5"/>
    </g>
  </g>
</svg>
