<svg xmlns="http://www.w3.org/2000/svg" viewBox="0 0 18.721 20">
  <path id="SettingsMajor" d="M9.027,0a1,1,0,0,0-.99.859l-.37,2.6A6.993,6.993,0,0,0,5.742,4.57L3.305,3.59a1,1,0,0,0-1.239.428L.934,5.981a1,1,0,0,0,.248,1.287L3.248,8.889a7.06,7.06,0,0,0,0,2.222L1.182,12.732a1,1,0,0,0-.248,1.287l1.132,1.962a1,1,0,0,0,1.239.428l2.438-.979a7,7,0,0,0,1.923,1.113l.372,2.6a1,1,0,0,0,.99.859h2.265a1,1,0,0,0,.99-.859l.371-2.6a7,7,0,0,0,1.924-1.112l2.438.978a1,1,0,0,0,1.238-.428l1.133-1.962a1,1,0,0,0-.249-1.287l-2.065-1.621a7.063,7.063,0,0,0,0-2.222l2.065-1.621a1,1,0,0,0,.249-1.287L18.254,4.019a1,1,0,0,0-1.239-.428l-2.437.979a6.994,6.994,0,0,0-1.924-1.113L12.283.86A1,1,0,0,0,11.293,0H9.027ZM10.16,13a3,3,0,1,0-3-3A3,3,0,0,0,10.16,13Z" transform="translate(-0.8)"/>
</svg>
