<svg id="Group_1288" data-name="Group 1288" xmlns="http://www.w3.org/2000/svg" xmlns:xlink="http://www.w3.org/1999/xlink" width="21.822" height="18.472" viewBox="0 0 21.822 18.472">
  <defs>
    <clipPath id="clip-path">
      <rect id="Rectangle_686" data-name="Rectangle 686" width="21.822" height="18.472" fill="#5c5f62"/>
    </clipPath>
  </defs>
  <g id="Group_1287" data-name="Group 1287" clip-path="url(#clip-path)">
    <path id="Path_771" data-name="Path 771" d="M6.9,520.76H.153c-.155,0-.16,0-.151-.156a8.222,8.222,0,0,1,.234-1.546A7.154,7.154,0,0,1,1.58,516.31a7.82,7.82,0,0,1,2.351-1.962,10.342,10.342,0,0,1,2.7-1.023,11.074,11.074,0,0,1,1.894-.281,16.715,16.715,0,0,1,2.3.023c.453.037.9.108,1.345.189.12.022.125.031.062.138a5.286,5.286,0,0,0-.681,1.933,5.58,5.58,0,0,0,.318,2.885,5.7,5.7,0,0,0,1.477,2.134,4.005,4.005,0,0,0,.407.332c.021.015.055.031.046.062s-.047.02-.072.021c-.058,0-.117,0-.175,0H6.9" transform="translate(0 -502.435)" />
    <path id="Path_772" data-name="Path 772" d="M228.942,0a4.645,4.645,0,0,1,2.723.873,4.744,4.744,0,0,1,2,3.189,4.775,4.775,0,0,1-.682,3.4A4.724,4.724,0,0,1,232,8.585a4.79,4.79,0,0,1-1.539.878,4.953,4.953,0,0,1-1.137.239,4.546,4.546,0,0,1-1.433-.1,4.632,4.632,0,0,1-1.629-.7,4.837,4.837,0,0,1-1.613-1.826,4.907,4.907,0,0,1-.517-1.833,4.775,4.775,0,0,1,.32-2.173A4.769,4.769,0,0,1,226.6.6a4.6,4.6,0,0,1,2.339-.6" transform="translate(-219.494 0)"/>
    <path id="Path_773" data-name="Path 773" d="M603.694,446.1a4.733,4.733,0,1,1,4.757-4.71,4.727,4.727,0,0,1-4.757,4.71m.452-6.328c0-.44,0-.88,0-1.32a.422.422,0,0,0-.52-.4.431.431,0,0,0-.343.463c0,.917,0,1.835,0,2.752a.677.677,0,0,0,.183.477c.166.184.334.364.5.548q.435.482.867.966c.126.14.248.285.38.42a.435.435,0,1,0,.622-.609c-.053-.058-.105-.118-.158-.177q-.7-.772-1.4-1.543a.458.458,0,0,1-.134-.34c.009-.412,0-.825,0-1.237" transform="translate(-586.63 -427.633)" />
  </g>
</svg>
