<svg xmlns="http://www.w3.org/2000/svg" width="18.833" height="18.833" viewBox="0 0 18.833 18.833">
  <path id="Zip_Code-595b40b85ba036ed117dba03" data-name="Zip Code-595b40b85ba036ed117dba03" d="M11.417,2a.409.409,0,0,0-.183.043l-9.007,4.5A.41.41,0,0,0,2,6.913v.819a.409.409,0,0,0,.593.366l8.824-4.412L20.241,8.1a.411.411,0,0,0,.4-.018.411.411,0,0,0,.194-.349V6.913a.409.409,0,0,0-.226-.366L11.6,2.043A.408.408,0,0,0,11.417,2Zm0,2.6L2.959,8.831a1.3,1.3,0,0,1-.14.05V20.424a.41.41,0,0,0,.409.409H19.6a.41.41,0,0,0,.409-.409V8.881a1.213,1.213,0,0,1-.14-.05Zm2.913,5.869a2.377,2.377,0,0,1,1.706.518,1.985,1.985,0,0,1,.545,1.462,2.076,2.076,0,0,1-2.14,2.233,1.594,1.594,0,0,1-.234-.011V16.33H13.054V10.6A5.812,5.812,0,0,1,14.33,10.471ZM6.76,10.6h3.428v.787L8.041,15.356v.03h2.147v.944H6.759v-.64l2.206-4.123v-.02H6.76Zm4.247,0h1.228V16.33H11.007Zm3.5.756a.78.78,0,0,0-.305.051V13.78a.551.551,0,0,0,.194.02c.706,0,1.1-.487,1.1-1.269C15.5,11.891,15.239,11.353,14.512,11.353Z" transform="translate(-2 -2)" fill="#5c5f62"/>
</svg>
